<svg width="47" height="45" viewBox="0 0 47 45" fill="none" xmlns="http://www.w3.org/2000/svg">
<path d="M38.4979 18.1898L24.7895 6.70537C24.0512 6.08682 22.9488 6.08681 22.2104 6.70537L8.50207 18.1897C8.07709 18.5458 7.83331 19.0602 7.83331 19.6008V35.625C7.83331 36.6605 8.71009 37.5 9.79165 37.5H17.625C18.7065 37.5 19.5833 36.6605 19.5833 35.625V28.125C19.5833 27.0895 20.4601 26.25 21.5416 26.25H25.4583C26.5399 26.25 27.4166 27.0895 27.4166 28.125V35.625C27.4166 36.6605 28.2934 37.5 29.375 37.5H37.2083C38.2899 37.5 39.1666 36.6605 39.1666 35.625V19.6008C39.1666 19.0602 38.9229 18.5458 38.4979 18.1898Z" stroke="white" stroke-width="2" stroke-linecap="round" stroke-linejoin="round"/>
</svg>
